<?xml version="1.0" standalone="no"?>
<!DOCTYPE svg PUBLIC "-//W3C//DTD SVG 20010904//EN"
 "http://www.w3.org/TR/2001/REC-SVG-20010904/DTD/svg10.dtd">
<svg version="1.0" xmlns="http://www.w3.org/2000/svg"
 width="240.000000pt" height="240.000000pt" viewBox="0 0 240.000000 240.000000"
 preserveAspectRatio="xMidYMid meet">
<metadata>
Created by potrace 1.14, written by Peter Selinger 2001-2017
</metadata>
<g transform="translate(0.000000,240.000000) scale(0.100000,-0.100000)"
fill="#000000" stroke="none">
<path d="M0 1200 l0 -1200 1200 0 1200 0 0 1200 0 1200 -380 0 c-247 0 -380
-4 -380 -10 0 -5 9 -10 20 -10 17 0 20 -7 20 -40 0 -33 -3 -40 -20 -40 -13 0
-20 -7 -20 -20 0 -13 -7 -20 -20 -20 -13 0 -20 7 -20 20 0 13 -7 20 -20 20
-17 0 -20 7 -20 50 l0 50 -780 0 -780 0 0 -1200z m1800 1020 c0 -33 -3 -40
-20 -40 -17 0 -20 -7 -20 -40 0 -33 3 -40 20 -40 17 0 20 -7 20 -40 0 -33 3
-40 20 -40 18 0 20 -7 20 -60 0 -53 -2 -60 -20 -60 -17 0 -20 -7 -20 -40 0
-33 -3 -40 -20 -40 -13 0 -20 -7 -20 -20 0 -13 7 -20 20 -20 13 0 20 -7 20
-20 0 -13 -7 -20 -20 -20 -13 0 -20 -7 -20 -20 0 -13 7 -20 20 -20 13 0 20 -7
20 -20 0 -18 -7 -20 -80 -20 -73 0 -80 2 -80 20 0 13 7 20 20 20 13 0 20 7 20
20 0 13 -7 20 -20 20 -18 0 -20 7 -20 59 0 50 -3 59 -20 64 -17 4 -20 14 -20
61 0 49 -2 56 -20 56 -18 0 -20 7 -20 60 0 53 2 60 20 60 13 0 20 7 20 20 0
17 7 20 40 20 l40 0 0 40 c0 33 3 40 20 40 13 0 20 7 20 20 0 17 7 20 40 20
l40 0 0 -40z m-880 -460 c0 -17 7 -20 40 -20 33 0 40 -3 40 -20 0 -13 7 -20
20 -20 13 0 20 -7 20 -20 0 -17 -7 -20 -40 -20 -33 0 -40 -3 -40 -20 0 -13 -7
-20 -20 -20 -13 0 -20 -7 -20 -20 0 -18 7 -20 80 -20 73 0 80 -2 80 -20 0 -18
7 -20 60 -20 53 0 60 -2 60 -20 0 -13 7 -20 20 -20 13 0 20 -7 20 -20 0 -13 7
-20 20 -20 13 0 20 -7 20 -20 0 -13 7 -20 20 -20 17 0 20 -7 20 -40 0 -33 3
-40 20 -40 17 0 20 -7 20 -40 0 -33 3 -40 20 -40 18 0 20 -7 20 -60 0 -53 2
-60 20 -60 19 0 20 -7 20 -160 0 -153 1 -160 20 -160 13 0 20 -7 20 -20 0 -18
7 -20 60 -20 53 0 60 -2 60 -20 0 -18 7 -20 60 -20 l60 0 0 -40 c0 -33 -3 -40
-20 -40 -13 0 -20 -7 -20 -20 0 -19 -7 -20 -220 -20 -213 0 -220 1 -220 20 0
13 -7 20 -20 20 -13 0 -20 7 -20 20 0 13 -7 20 -20 20 -17 0 -20 -7 -20 -40 0
-33 3 -40 20 -40 17 0 20 -7 20 -40 0 -33 -3 -40 -20 -40 -13 0 -20 -7 -20
-20 0 -13 -7 -20 -20 -20 -13 0 -20 -7 -20 -20 0 -17 -7 -20 -40 -20 -33 0
-40 3 -40 20 0 17 -7 20 -40 20 l-40 0 0 40 c0 33 -3 40 -20 40 -17 0 -20 7
-20 40 0 33 -3 40 -20 40 -18 0 -20 7 -20 80 0 73 2 80 20 80 13 0 20 7 20 20
0 13 7 20 20 20 17 0 20 7 20 40 l0 40 40 0 c33 0 40 3 40 20 0 13 7 20 20 20
13 0 20 7 20 20 0 17 -7 20 -40 20 l-40 0 0 40 c0 33 3 40 20 40 13 0 20 7 20
20 0 13 7 20 20 20 13 0 20 7 20 20 0 13 -7 20 -20 20 -17 0 -20 7 -20 40 0
33 -3 40 -20 40 -17 0 -20 7 -20 40 0 33 -3 40 -20 40 -19 0 -20 7 -20 100 0
93 -1 100 -20 100 -13 0 -20 7 -20 20 0 17 -7 20 -40 20 l-40 0 0 60 c0 53 2
60 20 60 13 0 20 7 20 20 0 13 -7 20 -20 20 -13 0 -20 7 -20 20 0 17 7 20 40
20 33 0 40 -3 40 -20z m840 -220 c0 -73 -2 -80 -20 -80 -17 0 -20 7 -20 40 0
33 -3 40 -20 40 -17 0 -20 7 -20 40 l0 40 40 0 40 0 0 -80z m200 -920 c0 -113
-1 -120 -20 -120 -17 0 -20 7 -20 40 0 33 -3 40 -20 40 -13 0 -20 7 -20 20 0
13 -7 20 -20 20 -13 0 -20 7 -20 20 0 13 -7 20 -20 20 -13 0 -20 7 -20 20 0
17 7 20 40 20 33 0 40 3 40 20 0 17 7 20 40 20 l40 0 0 -120z m-800 -240 c0
-33 3 -40 20 -40 13 0 20 -7 20 -20 0 -19 -7 -20 -140 -20 -133 0 -140 1 -140
20 0 17 7 20 40 20 33 0 40 3 40 20 0 17 7 20 40 20 33 0 40 3 40 20 0 17 7
20 40 20 l40 0 0 -40z"/>
<path d="M1080 1040 c0 -13 7 -20 20 -20 13 0 20 7 20 20 0 13 -7 20 -20 20
-13 0 -20 -7 -20 -20z"/>
</g>
</svg>
